# xmcd CD database file
#
# Track frame offsets:
#	150
#	17617
#	34450
#	54480
#	77979
#	91937
#	116832
#	143077
#	174465
#
# Disc length: 2673 seconds
#
# Revision: 0
# Processed by: cddbd v1.5.1PL0 Copyright (c) Steve Scherf et al.
# Submitted via: CDex 1.51
#
DISCID=730a6f09
DTITLE=高橋徹也 - ベッドタウン
DYEAR=1998
DGENRE=Rock
TTITLE0=テーマ
TTITLE1=後ろ向きに走れ
TTITLE2=悲しみのテーマ
TTITLE3=シーラカンス
TTITLE4=かっこいい車
TTITLE5=世界はまわる
TTITLE6=笑わない男
TTITLE7=ベッドタウン
TTITLE8=犬と老人
EXTD=YEAR: 1998.10/31
EXTT0=
EXTT1=
EXTT2=
EXTT3=
EXTT4=
EXTT5=
EXTT6=
EXTT7=
EXTT8=
PLAYORDER=
